<?xml version="1.0" encoding="UTF-8"?>
<svg xmlns="http://www.w3.org/2000/svg" xmlns:xlink="http://www.w3.org/1999/xlink" width="441.98pt" height="156.5pt" viewBox="0 0 441.98 156.5" version="1.1">
<defs>
<clipPath id="clip1">
  <path d="M 420 84 L 441.980469 84 L 441.980469 106 L 420 106 Z M 420 84 "/>
</clipPath>
<clipPath id="clip2">
  <path d="M 0 112 L 418 112 L 418 156.5 L 0 156.5 Z M 0 112 "/>
</clipPath>
</defs>
<g id="surface1">
<path style=" stroke:none;fill-rule:nonzero;fill:rgb(100%,77.253723%,18.431091%);fill-opacity:1;" d="M 278.339844 118.820313 L 268.8125 118.808594 L 268.8125 112.6875 L 295.90625 112.652344 L 295.902344 118.84375 L 286.601563 118.835938 L 286.566406 143.125 L 278.382813 143.191406 L 278.339844 118.820313 "/>
<path style=" stroke:none;fill-rule:nonzero;fill:rgb(100%,77.253723%,18.431091%);fill-opacity:1;" d="M 32.558594 104.589844 L 0.253906 104.589844 L 0.238281 0.0078125 L 32.558594 0.0078125 L 32.558594 104.589844 "/>
<path style=" stroke:none;fill-rule:nonzero;fill:rgb(100%,77.253723%,18.431091%);fill-opacity:1;" d="M 315.753906 104.589844 L 283.425781 104.589844 L 283.425781 0.0078125 L 315.753906 0.0078125 L 315.753906 104.589844 "/>
<path style=" stroke:none;fill-rule:nonzero;fill:rgb(100%,77.253723%,18.431091%);fill-opacity:1;" d="M 390.949219 55.199219 L 390.949219 0.0117188 L 417.03125 0.0117188 L 417.03125 104.589844 L 390.792969 104.589844 L 353.566406 43.800781 L 353.601563 43.800781 L 353.601563 104.589844 L 327.53125 104.589844 L 327.53125 0.0117188 L 357.867188 0.0117188 L 390.921875 55.199219 L 390.949219 55.199219 "/>
<path style=" stroke:none;fill-rule:nonzero;fill:rgb(100%,77.253723%,18.431091%);fill-opacity:1;" d="M 248.734375 0.0078125 L 234.242188 60.371094 L 233.945313 60.371094 L 221.636719 0.0078125 L 197.453125 0.0078125 L 185.246094 60.371094 L 184.914063 60.371094 L 170.429688 0.0078125 L 140.238281 0.0078125 L 168.148438 104.589844 L 196.207031 104.589844 L 209.589844 47.753906 L 222.972656 104.589844 L 251.027344 104.589844 L 278.917969 0.0078125 L 248.734375 0.0078125 "/>
<path style=" stroke:none;fill-rule:nonzero;fill:rgb(100%,77.253723%,18.431091%);fill-opacity:1;" d="M 94.027344 49.835938 C 101.652344 49.835938 107.835938 43.652344 107.835938 36.027344 C 107.835938 28.402344 101.652344 22.21875 94.027344 22.21875 L 76.988281 22.269531 L 76.988281 49.84375 Z M 125.207031 64.949219 L 143.582031 104.585938 L 109.308594 104.585938 L 94.0625 72.257813 L 76.988281 72.257813 L 76.988281 104.585938 L 44.515625 104.585938 L 44.515625 0.0078125 C 44.515625 0.0078125 97.980469 -0.0078125 101.214844 0.0078125 C 104.632813 0.0195313 108.609375 0.265625 109.300781 0.308594 C 127.558594 1.382813 141.996094 16.59375 141.996094 35.132813 C 141.996094 47.757813 135.277344 58.816406 125.230469 64.921875 L 125.207031 64.949219 "/>
<g clip-path="url(#clip1)" clip-rule="nonzero">
<path style=" stroke:none;fill-rule:nonzero;fill:rgb(100%,77.253723%,18.431091%);fill-opacity:1;" d="M 430.261719 93.769531 L 431.472656 93.769531 C 432.632813 93.769531 433.046875 93.03125 433.046875 92.085938 C 433.046875 90.5 431.949219 90.5 431.363281 90.5 L 430.261719 90.5 Z M 427.402344 88.59375 L 431.421875 88.59375 C 432.84375 88.59375 435.851563 88.59375 435.851563 92.128906 C 435.851563 94.195313 434.582031 94.878906 434.054688 95.089844 L 436.328125 100.210938 L 433.261719 100.210938 L 431.625 95.671875 L 430.261719 95.671875 L 430.261719 100.210938 L 427.402344 100.210938 Z M 431.472656 102.433594 C 435.640625 102.433594 439.128906 98.996094 439.128906 94.613281 C 439.128906 90.230469 435.699219 86.691406 431.472656 86.691406 C 427.246094 86.691406 423.761719 90.183594 423.761719 94.613281 C 423.761719 99.054688 427.304688 102.433594 431.472656 102.433594 M 431.472656 84 C 437.222656 84 441.984375 88.644531 441.984375 94.613281 C 441.984375 100.519531 437.171875 105.121094 431.472656 105.121094 C 425.722656 105.121094 420.910156 100.519531 420.910156 94.613281 C 420.910156 88.703125 425.664063 84 431.472656 84 "/>
</g>
<path style=" stroke:none;fill-rule:nonzero;fill:rgb(100%,77.253723%,18.431091%);fill-opacity:1;" d="M 312.269531 137.191406 C 317.089844 137.191406 319.835938 133.953125 319.835938 127.90625 C 319.835938 121.847656 317.066406 118.609375 312.289063 118.601563 C 307.515625 118.601563 304.773438 121.828125 304.773438 127.886719 C 304.765625 133.984375 307.492188 137.1875 312.269531 137.191406 M 312.289063 112.367188 C 321.886719 112.382813 328.003906 118.320313 327.996094 127.921875 C 327.980469 137.496094 321.855469 143.433594 312.269531 143.417969 C 302.667969 143.410156 296.648438 137.46875 296.65625 127.878906 C 296.671875 118.289063 302.703125 112.359375 312.289063 112.367188 "/>
<path style=" stroke:none;fill-rule:nonzero;fill:rgb(100%,77.253723%,18.431091%);fill-opacity:1;" d="M 347.359375 137.152344 C 352.171875 137.160156 354.917969 133.921875 354.917969 127.875 C 354.925781 121.808594 352.148438 118.570313 347.371094 118.5625 C 342.601563 118.5625 339.855469 121.785156 339.855469 127.855469 C 339.847656 133.949219 342.574219 137.152344 347.359375 137.152344 M 347.378906 112.335938 C 356.96875 112.351563 363.085938 118.289063 363.078125 127.882813 C 363.070313 137.464844 356.929688 143.394531 347.34375 143.378906 C 337.746094 143.371094 331.730469 137.433594 331.738281 127.847656 C 331.746094 118.257813 337.777344 112.328125 347.378906 112.335938 "/>
<path style=" stroke:none;fill-rule:nonzero;fill:rgb(100%,77.253723%,18.431091%);fill-opacity:1;" d="M 366.160156 112.640625 L 374.191406 112.640625 L 374.167969 136.628906 L 389.269531 136.648438 L 389.269531 143.164063 L 366.132813 143.140625 L 366.160156 112.640625 "/>
<path style=" stroke:none;fill-rule:nonzero;fill:rgb(100%,77.253723%,18.431091%);fill-opacity:1;" d="M 398.882813 132.90625 C 398.972656 136.253906 400.96875 137.988281 404.777344 137.988281 C 408.132813 137.988281 409.90625 136.898438 409.90625 135.085938 C 409.90625 134.097656 409.433594 133.363281 408.695313 132.992188 C 406.835938 132.085938 403.277344 131.515625 398.71875 129.796875 C 394.210938 128.109375 391.855469 125.273438 391.863281 121.625 C 391.863281 116.105469 396.53125 112.433594 404.339844 112.433594 C 411.933594 112.449219 416.574219 116.300781 416.566406 122.152344 L 409.058594 122.144531 C 408.710938 119.402344 407.023438 118.125 403.804688 118.117188 C 401.113281 118.125 399.46875 119.308594 399.460938 120.78125 C 399.460938 122.988281 401.886719 123.441406 406.789063 124.964844 C 410.398438 126.070313 412.996094 126.855469 414.523438 128.007813 C 416.558594 129.558594 417.589844 131.695313 417.585938 134.242188 C 417.585938 139.972656 412.773438 143.527344 403.992188 143.511719 C 395.875 143.511719 391.671875 140.019531 391.195313 132.902344 L 398.882813 132.90625 "/>
<g clip-path="url(#clip2)" clip-rule="nonzero">
<path style=" stroke:none;fill-rule:nonzero;fill:rgb(100%,77.253723%,18.431091%);fill-opacity:1;" d="M 0 112.546875 L 0 119.546875 L 246.140625 119.546875 L 275.222656 156.5 L 417.9375 156.5 L 417.9375 149.949219 L 278.382813 149.949219 L 249.078125 112.546875 L 0 112.546875 "/>
</g>
</g>
</svg>
