<?xml version="1.0" encoding="UTF-8"?>
<svg xmlns="http://www.w3.org/2000/svg" xmlns:xlink="http://www.w3.org/1999/xlink" width="499.09pt" height="102.29pt" viewBox="0 0 499.09 102.29" version="1.1">
<defs>
<clipPath id="clip1">
  <path d="M 382 0 L 499.089844 0 L 499.089844 101 L 382 101 Z M 382 0 "/>
</clipPath>
<clipPath id="clip2">
  <path d="M 106 1 L 252 1 L 252 102.289063 L 106 102.289063 Z M 106 1 "/>
</clipPath>
</defs>
<g id="surface1">
<g clip-path="url(#clip1)" clip-rule="nonzero">
<path style=" stroke:none;fill-rule:nonzero;fill:rgb(13.699341%,12.199402%,12.5%);fill-opacity:1;" d="M 470.054688 0 L 411.976563 0 L 382.9375 50.296875 L 411.976563 100.59375 L 470.054688 100.59375 L 499.09375 50.296875 Z M 469.503906 99.632813 L 412.53125 99.632813 L 384.046875 50.296875 L 412.53125 0.960938 L 469.503906 0.960938 L 497.988281 50.296875 L 469.503906 99.632813 "/>
</g>
<path style=" stroke:none;fill-rule:nonzero;fill:rgb(92.89856%,10.998535%,14.099121%);fill-opacity:1;" d="M 434.222656 62.058594 L 427.433594 50.296875 L 434.222656 38.535156 L 447.808594 38.535156 L 454.597656 50.296875 L 447.808594 62.058594 L 434.222656 62.058594 "/>
<path style=" stroke:none;fill-rule:nonzero;fill:rgb(13.699341%,12.199402%,12.5%);fill-opacity:1;" d="M 465.296875 8.246094 L 416.734375 8.246094 L 392.457031 50.296875 L 416.734375 92.351563 L 465.296875 92.351563 L 489.574219 50.296875 Z M 459.984375 83.144531 L 422.050781 83.144531 L 403.085938 50.296875 L 422.050781 17.449219 L 459.984375 17.449219 L 478.949219 50.296875 L 459.984375 83.144531 "/>
<path style=" stroke:none;fill-rule:nonzero;fill:rgb(13.699341%,12.199402%,12.5%);fill-opacity:1;" d="M 454.671875 26.652344 L 427.363281 26.652344 L 413.710938 50.296875 L 427.363281 73.945313 L 454.671875 73.945313 L 468.320313 50.296875 Z M 451.679688 68.769531 L 430.351563 68.769531 L 419.6875 50.296875 L 430.351563 31.824219 L 451.679688 31.824219 L 462.347656 50.296875 L 451.679688 68.769531 "/>
<path style=" stroke:none;fill-rule:nonzero;fill:rgb(92.89856%,10.998535%,14.099121%);fill-opacity:1;" d="M 0 100.046875 L 0 97.371094 L 3.253906 97.371094 C 6.097656 97.371094 8.28125 96.925781 9.800781 96.035156 C 11.320313 95.140625 12.441406 93.925781 13.164063 92.382813 C 13.597656 91.367188 13.8125 88.332031 13.8125 83.269531 L 13.8125 18.757813 C 13.8125 13.746094 13.546875 10.609375 13.019531 9.355469 C 12.488281 8.101563 11.414063 7.007813 9.800781 6.066406 C 8.183594 5.125 6.003906 4.65625 3.253906 4.65625 L 0 4.65625 L 0 1.980469 L 43.898438 1.980469 C 55.613281 1.980469 65.039063 3.570313 72.175781 6.753906 C 80.902344 10.65625 87.519531 16.566406 92.03125 24.472656 C 96.535156 32.378906 98.792969 41.324219 98.792969 51.304688 C 98.792969 58.199219 97.679688 64.550781 95.464844 70.359375 C 93.246094 76.171875 90.378906 80.96875 86.859375 84.75 C 83.339844 88.535156 79.277344 91.574219 74.671875 93.863281 C 70.066406 96.15625 64.4375 97.925781 57.785156 99.179688 C 54.84375 99.757813 50.214844 100.046875 43.898438 100.046875 Z M 37.390625 7.546875 L 37.390625 84.0625 C 37.390625 88.113281 37.582031 90.597656 37.96875 91.511719 C 38.355469 92.429688 39.003906 93.128906 39.921875 93.609375 C 41.222656 94.332031 43.101563 94.695313 45.5625 94.695313 C 53.613281 94.695313 59.761719 91.949219 64.003906 86.449219 C 69.789063 79.027344 72.683594 67.503906 72.683594 51.882813 C 72.683594 39.296875 70.707031 29.246094 66.753906 21.722656 C 63.617188 15.839844 59.59375 11.839844 54.675781 9.71875 C 51.203125 8.222656 45.441406 7.5 37.390625 7.546875 "/>
<g clip-path="url(#clip2)" clip-rule="nonzero">
<path style=" stroke:none;fill-rule:nonzero;fill:rgb(92.89856%,10.998535%,14.099121%);fill-opacity:1;" d="M 251.824219 1.980469 L 251.824219 4.65625 C 249.992188 4.800781 248.449219 5.304688 247.195313 6.175781 C 245.941406 7.042969 244.832031 8.367188 243.867188 10.152344 C 243.578125 10.730469 242.0625 14.46875 239.3125 21.363281 L 208.574219 102.289063 L 205.753906 102.289063 L 181.453125 39.082031 L 154.695313 102.289063 L 152.019531 102.289063 L 119.765625 22.230469 C 116.484375 14.179688 114.195313 9.308594 112.894531 7.621094 C 111.59375 5.933594 109.398438 4.945313 106.3125 4.65625 L 106.3125 1.980469 L 148.839844 1.980469 L 148.839844 4.65625 C 145.414063 4.753906 143.136719 5.269531 142.003906 6.210938 C 140.871094 7.152344 140.304688 8.320313 140.304688 9.71875 C 140.304688 11.550781 141.484375 15.429688 143.847656 21.363281 L 163.085938 68.949219 L 178.488281 31.777344 L 174.441406 21.363281 C 172.222656 15.671875 170.511719 11.875 169.304688 9.972656 C 168.101563 8.066406 166.714844 6.707031 165.144531 5.886719 C 163.578125 5.066406 161.277344 4.65625 158.238281 4.65625 L 158.238281 1.980469 L 205.753906 1.980469 L 205.753906 4.65625 C 202.429688 4.703125 200.042969 4.96875 198.59375 5.449219 C 197.582031 5.789063 196.785156 6.355469 196.210938 7.152344 C 195.628906 7.945313 195.339844 8.851563 195.339844 9.863281 C 195.339844 10.972656 196.425781 14.371094 198.59375 20.058594 L 216.460938 66.488281 L 232.441406 24.472656 C 234.128906 20.132813 235.164063 17.167969 235.550781 15.574219 C 235.9375 13.984375 236.128906 12.515625 236.128906 11.164063 C 236.128906 9.1875 235.453125 7.632813 234.105469 6.5 C 232.753906 5.367188 230.175781 4.753906 226.367188 4.65625 L 226.367188 1.980469 L 251.824219 1.980469 "/>
</g>
<path style=" stroke:none;fill-rule:nonzero;fill:rgb(92.89856%,10.998535%,14.099121%);fill-opacity:1;" d="M 346.566406 1.980469 L 346.566406 28.523438 L 343.960938 28.523438 C 342.417969 22.398438 340.707031 18 338.828125 15.324219 C 336.945313 12.648438 334.367188 10.511719 331.089844 8.921875 C 329.253906 8.054688 326.050781 7.621094 321.46875 7.621094 L 314.164063 7.621094 L 314.164063 83.269531 C 314.164063 88.285156 314.441406 91.417969 314.996094 92.671875 C 315.550781 93.925781 316.636719 95.019531 318.253906 95.960938 C 319.867188 96.902344 322.070313 97.371094 324.867188 97.371094 L 328.121094 97.371094 L 328.121094 100.046875 L 276.773438 100.046875 L 276.773438 97.371094 L 280.027344 97.371094 C 282.871094 97.371094 285.164063 96.863281 286.898438 95.851563 C 288.152344 95.179688 289.140625 94.019531 289.863281 92.382813 C 290.394531 91.222656 290.660156 88.1875 290.660156 83.269531 L 290.660156 7.621094 L 283.574219 7.621094 C 276.964844 7.621094 272.171875 9.019531 269.179688 11.816406 C 264.984375 15.71875 262.335938 21.289063 261.226563 28.523438 L 258.476563 28.523438 L 258.476563 1.980469 L 346.566406 1.980469 "/>
<path style=" stroke:none;fill-rule:nonzero;fill:rgb(92.89856%,10.998535%,14.099121%);fill-opacity:1;" d="M 370.378906 17.433594 C 368.554688 19.203125 366.359375 20.085938 363.800781 20.085938 C 361.160156 20.085938 358.933594 19.183594 357.125 17.371094 C 355.316406 15.5625 354.410156 13.335938 354.410156 10.695313 C 354.410156 7.949219 355.386719 5.667969 357.339844 3.851563 C 359.175781 2.148438 361.328125 1.300781 363.800781 1.300781 C 366.394531 1.300781 368.609375 2.21875 370.441406 4.054688 C 372.277344 5.890625 373.195313 8.101563 373.195313 10.695313 C 373.195313 13.359375 372.253906 15.609375 370.378906 17.433594 Z M 358.308594 5.25 C 356.816406 6.777344 356.070313 8.589844 356.070313 10.6875 C 356.070313 12.863281 356.828125 14.710938 358.347656 16.230469 C 359.855469 17.753906 361.679688 18.515625 363.816406 18.515625 C 365.941406 18.515625 367.761719 17.75 369.269531 16.21875 C 370.78125 14.683594 371.535156 12.839844 371.535156 10.6875 C 371.535156 8.597656 370.785156 6.785156 369.285156 5.25 C 367.765625 3.683594 365.941406 2.902344 363.816406 2.902344 C 361.660156 2.902344 359.824219 3.683594 358.308594 5.25 Z M 359.683594 15.890625 L 359.683594 5.492188 C 360.324219 5.492188 361.289063 5.496094 362.574219 5.5 C 363.859375 5.503906 364.578125 5.511719 364.71875 5.519531 C 365.539063 5.578125 366.226563 5.757813 366.769531 6.050781 C 367.695313 6.558594 368.15625 7.386719 368.15625 8.527344 C 368.15625 9.398438 367.914063 10.027344 367.425781 10.410156 C 366.933594 10.796875 366.332031 11.027344 365.617188 11.101563 C 366.269531 11.238281 366.761719 11.4375 367.09375 11.703125 C 367.703125 12.203125 368.011719 12.984375 368.011719 14.050781 L 368.011719 14.984375 C 368.011719 15.085938 368.019531 15.1875 368.03125 15.289063 C 368.046875 15.394531 368.070313 15.496094 368.113281 15.597656 L 368.214844 15.890625 L 365.601563 15.890625 C 365.519531 15.558594 365.464844 15.078125 365.433594 14.445313 C 365.402344 13.8125 365.347656 13.386719 365.261719 13.167969 C 365.128906 12.796875 364.875 12.542969 364.503906 12.398438 C 364.304688 12.3125 363.996094 12.257813 363.585938 12.230469 L 362.984375 12.195313 L 362.417969 12.195313 L 362.417969 15.890625 Z M 364.644531 7.519531 C 364.269531 7.371094 363.75 7.300781 363.078125 7.300781 L 362.417969 7.300781 L 362.417969 10.328125 L 363.46875 10.328125 C 364.101563 10.328125 364.589844 10.203125 364.945313 9.945313 C 365.300781 9.691406 365.476563 9.277344 365.476563 8.707031 C 365.476563 8.136719 365.199219 7.738281 364.644531 7.519531 "/>
</g>
</svg>
